<svg width="300" height="257" viewBox="0 0 300 257" fill="none" xmlns="http://www.w3.org/2000/svg">
<rect width="41.5987" height="41.5987" transform="matrix(-1 0 0 1 41.5986 0)" fill="#ADD956"/>
<rect width="41.5987" height="41.5987" transform="matrix(-1 0 0 1 84.6655 0)" fill="#ADD956"/>
<rect x="86.1338" width="41.5987" height="41.5987" fill="#CAEB87"/>
<rect x="129.201" width="41.5987" height="41.5987" fill="#EEF0E9"/>
<rect x="172.268" width="41.5987" height="41.5987" fill="#CAEB87"/>
<rect x="215.334" width="41.5987" height="41.5987" fill="#ADD956"/>
<rect x="258.401" width="41.5987" height="41.5987" fill="#ADD956"/>
<rect y="43.0688" width="41.5987" height="41.5987" fill="#ADD956"/>
<rect x="43.0669" y="43.0686" width="41.5987" height="41.5987" fill="#CAEB87"/>
<rect x="86.1338" y="43.0686" width="41.5987" height="41.5987" fill="#CAEB87"/>
<rect x="129.201" y="43.0686" width="41.5987" height="41.5987" fill="#E5E5E5"/>
<rect x="172.268" y="43.0686" width="41.5987" height="41.5987" fill="#CAEB87"/>
<rect x="215.334" y="43.0686" width="41.5987" height="41.5987" fill="#CAEB87"/>
<rect x="258.401" y="43.0688" width="41.5987" height="41.5987" fill="#ADD956"/>
<rect y="86.1372" width="41.5987" height="41.5987" fill="#ADD956"/>
<rect x="43.0669" y="86.1372" width="41.5987" height="41.5987" fill="#ADD956"/>
<rect x="86.1338" y="86.1375" width="41.5987" height="41.5987" fill="#CAEB87"/>
<rect x="129.201" y="86.1375" width="41.5987" height="41.5987" fill="#EEF0E9"/>
<rect x="172.268" y="86.1375" width="41.5987" height="41.5987" fill="#CAEB87"/>
<rect x="215.334" y="86.1372" width="41.5987" height="41.5987" fill="#ADD956"/>
<rect x="258.401" y="86.1372" width="41.5987" height="41.5987" fill="#ADD956"/>
<rect y="129.206" width="41.5987" height="41.5987" fill="#ADD956"/>
<rect x="43.0669" y="129.206" width="41.5987" height="41.5987" fill="#ADD956"/>
<rect x="86.1338" y="129.206" width="41.5987" height="41.5987" fill="#ADD956"/>
<rect x="129.201" y="129.206" width="41.5987" height="41.5987" fill="#EEF0E9"/>
<rect x="172.268" y="129.206" width="41.5987" height="41.5987" fill="#ADD956"/>
<rect x="215.334" y="129.206" width="41.5987" height="41.5987" fill="#ADD956"/>
<rect x="258.401" y="129.206" width="41.5987" height="41.5987" fill="#ADD956"/>
<rect y="172.275" width="41.5987" height="41.5987" fill="#CAEB87"/>
<rect x="43.0669" y="172.275" width="41.5987" height="41.5987" fill="#CAEB87"/>
<rect x="86.1338" y="172.275" width="41.5987" height="41.5987" fill="#CAEB87"/>
<rect x="129.201" y="172.275" width="41.5987" height="41.5987" fill="#EEF0E9"/>
<rect x="172.268" y="172.275" width="41.5987" height="41.5987" fill="#CAEB87"/>
<rect x="215.334" y="172.275" width="41.5987" height="41.5987" fill="#CAEB87"/>
<rect x="258.401" y="172.275" width="41.5987" height="41.5987" fill="#CAEB87"/>
<rect y="215.343" width="41.5987" height="41.5987" fill="#ADD956"/>
<rect x="43.0669" y="215.344" width="41.5987" height="41.5987" fill="#ADD956"/>
<rect x="86.1338" y="215.344" width="41.5987" height="41.5987" fill="#ADD956"/>
<rect x="129.201" y="215.344" width="41.5987" height="41.5987" fill="#EEF0E9"/>
<rect x="172.268" y="215.344" width="41.5987" height="41.5987" fill="#ADD956"/>
<rect x="215.334" y="215.344" width="41.5987" height="41.5987" fill="#ADD956"/>
<rect x="258.401" y="215.344" width="41.5987" height="41.5987" fill="#ADD956"/>
</svg>
