<svg width="24" height="24" viewBox="0 0 24 24" fill="none" xmlns="http://www.w3.org/2000/svg">
<path fill-rule="evenodd" clip-rule="evenodd" d="M3.71 19.9003C4.04 20.5503 4.72 21.0003 5.5 21.0003H18.5C19.28 21.0003 19.96 20.5503 20.29 19.9003L22.96 10.2903L23 10.0003C23 9.73506 22.8946 9.4807 22.7071 9.29317C22.5196 9.10563 22.2652 9.00027 22 9.00027H17.42L12.83 2.44027C12.7394 2.30504 12.6171 2.19403 12.4738 2.11695C12.3304 2.03987 12.1704 1.99905 12.0076 1.99807C11.8449 1.99708 11.6844 2.03595 11.5401 2.11129C11.3958 2.18663 11.2722 2.29615 11.18 2.43027L6.58 9.00027H2C1.73478 9.00027 1.48043 9.10563 1.29289 9.29317C1.10536 9.4807 1 9.73506 1 10.0003L1.1 10.4403L3.71 19.9003ZM9 9.00027L12 4.74027L15 9.00027H9ZM7.57368 18.25C7.59897 18.2515 7.62433 18.2515 7.64962 18.25C7.84741 18.229 8.02875 18.1303 8.15376 17.9756C8.27876 17.8208 8.33719 17.6228 8.31618 17.425L7.79118 12.175C7.77129 11.9771 7.67359 11.7952 7.51958 11.6693C7.36556 11.5434 7.16785 11.4839 6.96993 11.5038C6.77202 11.5237 6.59011 11.6214 6.46422 11.7754C6.33834 11.9294 6.27879 12.1271 6.29868 12.325L6.82368 17.575C6.84234 17.7607 6.92952 17.9327 7.0682 18.0575C7.20688 18.1823 7.38711 18.2509 7.57368 18.25ZM12.53 18.0303C12.6706 17.8897 12.7496 17.6989 12.7496 17.5V12.25C12.7496 12.0511 12.6706 11.8603 12.53 11.7197C12.3893 11.579 12.1985 11.5 11.9996 11.5C11.8007 11.5 11.6099 11.579 11.4693 11.7197C11.3286 11.8603 11.2496 12.0511 11.2496 12.25V17.5C11.2496 17.6989 11.3286 17.8897 11.4693 18.0303C11.6099 18.171 11.8007 18.25 11.9996 18.25C12.1985 18.25 12.3893 18.171 12.53 18.0303ZM17.6959 12.325L17.1709 17.575C17.1523 17.7598 17.0658 17.9312 16.9281 18.0559C16.7904 18.1806 16.6113 18.2498 16.4256 18.25C16.4003 18.2515 16.3749 18.2515 16.3496 18.25C16.2516 18.2402 16.1565 18.2111 16.0697 18.1645C15.983 18.1179 15.9062 18.0547 15.8439 17.9784C15.7816 17.9021 15.7349 17.8144 15.7065 17.7201C15.6781 17.6257 15.6685 17.5268 15.6784 17.4288L16.2034 12.1788C16.2233 11.9808 16.321 11.7989 16.475 11.673C16.629 11.5472 16.8267 11.4876 17.0246 11.5075C17.2225 11.5274 17.4044 11.6251 17.5303 11.7791C17.6562 11.9331 17.7158 12.1308 17.6959 12.3288V12.325Z" fill="#565656"/>
</svg>
