<svg width="24" height="24" viewBox="0 0 24 24" fill="none" xmlns="http://www.w3.org/2000/svg">
<g clip-path="url(#clip0_1728_31438)">
<path fill-rule="evenodd" clip-rule="evenodd" d="M4.10597 4.50215L4.33597 4.96415L2.18597 7.97415C2.04852 8.16679 1.98384 8.40193 2.00343 8.63776C2.02303 8.87359 2.12562 9.09483 2.29297 9.26215L3.79297 10.7622C3.94139 10.9104 4.13269 11.0083 4.3398 11.0418C4.5469 11.0754 4.75931 11.043 4.94697 10.9492L6.20097 10.3232L6.89297 11.2451L4.82297 17.8712C4.76569 17.8286 4.70902 17.7853 4.65297 17.7412C4.50237 17.6244 4.35878 17.4988 4.22297 17.3651C4.03906 17.1785 3.78925 17.0716 3.52728 17.0672C3.2653 17.0629 3.01209 17.1615 2.8221 17.342C2.63211 17.5224 2.52052 17.7702 2.51133 18.032C2.50214 18.2939 2.59609 18.5489 2.77297 18.7422L3.40897 19.3072C3.80597 19.6222 4.38897 20.0322 5.15697 20.4392C6.69997 21.2552 8.98297 22.0552 12 22.0552C15.017 22.0552 17.301 21.2552 18.843 20.4392C19.459 20.116 20.0441 19.7371 20.591 19.3072C20.745 19.1842 21.246 18.7252 21.227 18.7422C21.3961 18.5642 21.4939 18.3303 21.5017 18.0849C21.5095 17.8395 21.4267 17.5998 21.2692 17.4115C21.1116 17.2232 20.8903 17.0994 20.6474 17.0638C20.4045 17.0281 20.157 17.0831 19.952 17.2182L18.922 12.0672C19.445 12.5562 20.01 13.3121 20.606 14.5021C20.6621 14.6237 20.7421 14.7328 20.8413 14.8229C20.9404 14.9129 21.0566 14.9822 21.1829 15.0265C21.3093 15.0708 21.4433 15.0893 21.577 15.0808C21.7106 15.0723 21.8412 15.0371 21.961 14.9772C22.0808 14.9173 22.1873 14.834 22.2743 14.7321C22.3612 14.6303 22.4269 14.512 22.4672 14.3843C22.5076 14.2566 22.5219 14.1221 22.5094 13.9888C22.4968 13.8555 22.4575 13.726 22.394 13.6082C21.338 11.4952 20.208 10.2912 18.947 9.66115C17.89 9.13215 16.84 9.06515 15.95 9.05515H12.258C12.158 8.75239 12.0448 8.45411 11.919 8.16115C11.51 7.20715 10.822 5.96315 9.70697 4.84815C8.54797 3.68915 7.35397 3.22515 6.41397 3.06815C6.03719 3.00443 5.65422 2.9853 5.27297 3.01115C5.15997 3.01915 4.82297 3.06815 4.75697 3.08515C4.61182 3.12159 4.4767 3.19014 4.36157 3.28575C4.24644 3.38136 4.15424 3.50159 4.09176 3.63758C4.02929 3.77357 3.99813 3.92185 4.00059 4.07148C4.00305 4.22111 4.03906 4.36829 4.10597 4.50215ZM14.826 19.7702L13.806 17.0552H11.192L10.113 19.9312C10.698 20.0102 11.326 20.0552 11.999 20.0552C13.048 20.0552 13.989 19.9452 14.824 19.7702H14.826Z" fill="#565656"/>
</g>
<defs>
<clipPath id="clip0_1728_31438">
<rect width="24" height="24" fill="white"/>
</clipPath>
</defs>
</svg>
