<svg width="64" height="56" viewBox="0 0 64 56" fill="none" xmlns="http://www.w3.org/2000/svg">
<rect width="64" height="56" fill="#F1ECE0"/>
<rect width="8.81998" height="8.81998" fill="#D1A25C"/>
<rect x="9.17285" width="8.81998" height="8.81998" fill="#EED3A9"/>
<rect x="18.3455" width="8.81998" height="8.81998" rx="2.97143" fill="#F1ECE0"/>
<rect x="27.5183" width="8.81998" height="8.81998" fill="#D1A25C"/>
<rect x="36.6912" width="8.81998" height="8.81998" fill="#EED3A9"/>
<rect x="45.864" width="8.81998" height="8.81998" rx="2.97143" fill="#F1ECE0"/>
<rect x="55.0366" width="8.81998" height="8.81998" fill="#D1A25C"/>
<rect y="9.17285" width="8.81998" height="8.81998" fill="#D1A25C"/>
<rect x="9.17285" y="9.17285" width="8.81998" height="8.81998" fill="#EED3A9"/>
<rect x="18.3455" y="9.17285" width="8.81998" height="8.81998" fill="#EED3A9"/>
<rect x="27.5183" y="9.17285" width="8.81998" height="8.81998" fill="#EED3A9"/>
<rect x="36.6912" y="9.17285" width="8.81998" height="8.81998" fill="#EED3A9"/>
<rect x="45.864" y="9.17285" width="8.81998" height="8.81998" fill="#EED3A9"/>
<rect x="55.0366" y="9.17285" width="8.81998" height="8.81998" fill="#EED3A9"/>
<rect y="18.3455" width="8.81998" height="8.81998" fill="#D1A25C"/>
<rect x="9.17285" y="18.3455" width="8.81998" height="8.81998" fill="#EED3A9"/>
<rect x="18.3455" y="18.3455" width="8.81998" height="8.81998" rx="2.97143" fill="#F1ECE0"/>
<rect x="27.5183" y="18.3455" width="8.81998" height="8.81998" fill="#D1A25C"/>
<rect x="36.6912" y="18.3455" width="8.81998" height="8.81998" fill="#EED3A9"/>
<rect x="45.864" y="18.3455" width="8.81998" height="8.81998" rx="2.97143" fill="#F1ECE0"/>
<rect x="55.0366" y="18.3455" width="8.81998" height="8.81998" fill="#D1A25C"/>
<rect y="27.5183" width="8.81998" height="8.81998" fill="#D1A25C"/>
<rect x="9.17285" y="27.5183" width="8.81998" height="8.81998" fill="#EED3A9"/>
<rect x="18.3455" y="27.5183" width="8.81998" height="8.81998" fill="#EED3A9"/>
<rect x="27.5183" y="27.5183" width="8.81998" height="8.81998" fill="#EED3A9"/>
<rect x="36.6912" y="27.5183" width="8.81998" height="8.81998" fill="#EED3A9"/>
<rect x="45.864" y="27.5183" width="8.81998" height="8.81998" fill="#EED3A9"/>
<rect x="55.0366" y="27.5183" width="8.81998" height="8.81998" fill="#EED3A9"/>
<rect y="36.6912" width="8.81998" height="8.81998" fill="#D1A25C"/>
<rect x="9.17285" y="36.6912" width="8.81998" height="8.81998" fill="#EED3A9"/>
<rect x="18.3455" y="36.6912" width="8.81998" height="8.81998" rx="2.97143" fill="#F1ECE0"/>
<rect x="27.5183" y="36.6912" width="8.81998" height="8.81998" fill="#D1A25C"/>
<rect x="36.6912" y="36.6912" width="8.81998" height="8.81998" fill="#EED3A9"/>
<rect x="45.864" y="36.6912" width="8.81998" height="8.81998" rx="2.97143" fill="#F1ECE0"/>
<rect x="55.0366" y="36.6912" width="8.81998" height="8.81998" fill="#D1A25C"/>
<rect y="45.864" width="8.81998" height="8.81998" fill="#D1A25C"/>
<rect width="8.81998" height="8.81998" transform="matrix(-1 0 0 1 17.9927 45.864)" fill="#EED3A9"/>
<rect width="8.81998" height="8.81998" transform="matrix(-1 0 0 1 27.1655 45.864)" fill="#EED3A9"/>
<rect x="27.5183" y="45.864" width="8.81998" height="8.81998" fill="#EED3A9"/>
<rect x="36.6912" y="45.864" width="8.81998" height="8.81998" fill="#EED3A9"/>
<rect x="45.864" y="45.864" width="8.81998" height="8.81998" fill="#EED3A9"/>
<rect x="55.0366" y="45.864" width="8.81998" height="8.81998" fill="#EED3A9"/>
</svg>
