<svg width="16" height="16" viewBox="0 0 16 16" fill="none" xmlns="http://www.w3.org/2000/svg">
<path d="M3.33333 7.33252L4.33333 4.33252H11.6667L12.6667 7.33252M11.6667 10.6659C11.4015 10.6659 11.1471 10.5605 10.9596 10.373C10.772 10.1854 10.6667 9.93107 10.6667 9.66585C10.6667 9.40064 10.772 9.14628 10.9596 8.95875C11.1471 8.77121 11.4015 8.66585 11.6667 8.66585C11.9319 8.66585 12.1862 8.77121 12.3738 8.95875C12.5613 9.14628 12.6667 9.40064 12.6667 9.66585C12.6667 9.93107 12.5613 10.1854 12.3738 10.373C12.1862 10.5605 11.9319 10.6659 11.6667 10.6659ZM4.33333 10.6659C4.06812 10.6659 3.81376 10.5605 3.62623 10.373C3.43869 10.1854 3.33333 9.93107 3.33333 9.66585C3.33333 9.40064 3.43869 9.14628 3.62623 8.95875C3.81376 8.77121 4.06812 8.66585 4.33333 8.66585C4.59855 8.66585 4.8529 8.77121 5.04044 8.95875C5.22798 9.14628 5.33333 9.40064 5.33333 9.66585C5.33333 9.93107 5.22798 10.1854 5.04044 10.373C4.8529 10.5605 4.59855 10.6659 4.33333 10.6659ZM12.6133 3.99919C12.48 3.61252 12.1067 3.33252 11.6667 3.33252H4.33333C3.89333 3.33252 3.52 3.61252 3.38667 3.99919L2 7.99919V13.3325C2 13.5093 2.07024 13.6789 2.19526 13.8039C2.32029 13.9289 2.48986 13.9992 2.66667 13.9992H3.33333C3.51014 13.9992 3.67971 13.9289 3.80474 13.8039C3.92976 13.6789 4 13.5093 4 13.3325V12.6659H12V13.3325C12 13.5093 12.0702 13.6789 12.1953 13.8039C12.3203 13.9289 12.4899 13.9992 12.6667 13.9992H13.3333C13.5101 13.9992 13.6797 13.9289 13.8047 13.8039C13.9298 13.6789 14 13.5093 14 13.3325V7.99919L12.6133 3.99919Z" fill="#565656"/>
</svg>
