<svg width="16" height="16" viewBox="0 0 16 16" fill="none" xmlns="http://www.w3.org/2000/svg">
<path fill-rule="evenodd" clip-rule="evenodd" d="M4.22871 4.22895C4.48906 3.9686 4.91117 3.9686 5.17152 4.22895L7.99995 7.05738L10.8284 4.22895C11.0887 3.9686 11.5108 3.9686 11.7712 4.22895C12.0315 4.4893 12.0315 4.91141 11.7712 5.17176L8.94275 8.00019L11.7712 10.8286C12.0315 11.089 12.0315 11.5111 11.7712 11.7714C11.5108 12.0318 11.0887 12.0318 10.8284 11.7714L7.99995 8.943L5.17152 11.7714C4.91117 12.0318 4.48906 12.0318 4.22871 11.7714C3.96836 11.5111 3.96836 11.089 4.22871 10.8286L7.05714 8.00019L4.22871 5.17176C3.96836 4.91141 3.96836 4.4893 4.22871 4.22895Z" fill="#565656"/>
</svg>
