<svg width="16" height="16" viewBox="0 0 16 16" fill="none" xmlns="http://www.w3.org/2000/svg">
<path fill-rule="evenodd" clip-rule="evenodd" d="M1.33325 4.00016C1.33325 3.63197 1.63173 3.3335 1.99992 3.3335H13.9999C14.3681 3.3335 14.6666 3.63197 14.6666 4.00016C14.6666 4.36835 14.3681 4.66683 13.9999 4.66683H1.99992C1.63173 4.66683 1.33325 4.36835 1.33325 4.00016ZM1.33325 8.00016C1.33325 7.63197 1.63173 7.3335 1.99992 7.3335H13.9999C14.3681 7.3335 14.6666 7.63197 14.6666 8.00016C14.6666 8.36835 14.3681 8.66683 13.9999 8.66683H1.99992C1.63173 8.66683 1.33325 8.36835 1.33325 8.00016ZM1.33325 12.0002C1.33325 11.632 1.63173 11.3335 1.99992 11.3335H13.9999C14.3681 11.3335 14.6666 11.632 14.6666 12.0002C14.6666 12.3684 14.3681 12.6668 13.9999 12.6668H1.99992C1.63173 12.6668 1.33325 12.3684 1.33325 12.0002Z" fill="#565656"/>
</svg>
