<svg width="16" height="16" viewBox="0 0 16 16" fill="none" xmlns="http://www.w3.org/2000/svg">
<path fill-rule="evenodd" clip-rule="evenodd" d="M7.70443 1.41005C7.97233 1.1475 8.33569 1 8.71456 1C9.09343 1 9.45678 1.1475 9.72468 1.41005C9.99258 1.67259 10.1431 2.02868 10.1431 2.39998C10.1431 2.77128 9.99258 3.12738 9.72468 3.38992C9.45678 3.65247 9.09343 3.79997 8.71456 3.79997C8.33568 3.79997 7.97233 3.65247 7.70443 3.38992C7.43653 3.12738 7.28602 2.77128 7.28602 2.39998C7.28602 2.02868 7.43653 1.67259 7.70443 1.41005ZM7.82708 4.52086C8.07049 4.46123 8.32799 4.53114 8.50539 4.70503L10.5286 6.68812L12.5114 7.33585C12.8856 7.4581 13.0879 7.85452 12.9632 8.22128C12.8384 8.58804 12.4339 8.78625 12.0597 8.66399L9.91687 7.964C9.81166 7.92963 9.71605 7.87172 9.63764 7.79486L8.47664 6.65688L8.051 9.15966L9.93389 11.0049C9.98817 11.0581 10.0333 11.1195 10.0677 11.1868L11.4962 13.9868C11.6726 14.3326 11.5296 14.7531 11.1768 14.9259C10.824 15.0988 10.3949 14.9587 10.2185 14.6129L8.8418 11.9145L6.78096 9.89488C6.61785 9.73503 6.54355 9.50782 6.58148 9.28483L7.11665 6.13795L5.584 6.51341L4.30865 8.38821C4.08983 8.70988 3.64636 8.7968 3.31814 8.58235C2.98991 8.36791 2.90122 7.9333 3.12004 7.61164L4.54857 5.51166C4.64714 5.36677 4.79727 5.26308 4.96966 5.22085L7.82708 4.52086ZM7.00032 10.9399C7.3159 11.1719 7.37986 11.6106 7.14317 11.9199L5.00037 14.7198C4.76368 15.0291 4.31598 15.0918 4.0004 14.8598C3.68481 14.6279 3.62086 14.1891 3.85754 13.8799L6.00034 11.0799C6.23703 10.7706 6.68473 10.7079 7.00032 10.9399Z" fill="#565656"/>
</svg>
