<svg width="48" height="48" viewBox="0 0 48 48" fill="none" xmlns="http://www.w3.org/2000/svg">
<rect width="6.61499" height="6.61499" rx="1.58476" fill="#EEF0E9"/>
<rect width="6.61499" height="6.61499" transform="matrix(-1 0 0 1 13.4946 0)" fill="#84B523"/>
<rect width="6.61499" height="6.61499" transform="matrix(-1 0 0 1 20.3743 0)" fill="#84B523"/>
<rect x="20.6387" width="6.61499" height="6.61499" fill="#84B523"/>
<rect x="27.5183" width="6.61499" height="6.61499" fill="#84B523"/>
<rect x="34.3979" width="6.61499" height="6.61499" fill="#84B523"/>
<rect x="41.2776" width="6.61499" height="6.61499" rx="1.58476" fill="#EEF0E9"/>
<rect y="6.87939" width="6.61499" height="6.61499" fill="#84B523"/>
<rect x="6.87964" y="6.87939" width="6.61499" height="6.61499" rx="1.58476" fill="#EEF0E9"/>
<rect x="13.7593" y="6.87939" width="6.61499" height="6.61499" rx="1.58476" fill="#EEF0E9"/>
<rect x="20.6387" y="6.87939" width="6.61499" height="6.61499" rx="1.58476" fill="#EEF0E9"/>
<rect x="27.5183" y="6.87939" width="6.61499" height="6.61499" rx="1.58476" fill="#EEF0E9"/>
<rect x="34.3979" y="6.87939" width="6.61499" height="6.61499" rx="1.58476" fill="#EEF0E9"/>
<rect x="41.2776" y="6.87939" width="6.61499" height="6.61499" fill="#84B523"/>
<rect y="13.7593" width="6.61499" height="6.61499" fill="#84B523"/>
<rect x="6.87964" y="13.7593" width="6.61499" height="6.61499" rx="1.58476" fill="#EEF0E9"/>
<rect x="13.7593" y="13.7593" width="6.61499" height="6.61499" rx="1.58476" fill="#EEF0E9"/>
<rect x="20.6387" y="13.7593" width="6.61499" height="6.61499" rx="1.58476" fill="#EEF0E9"/>
<rect x="27.5183" y="13.7593" width="6.61499" height="6.61499" rx="1.58476" fill="#EEF0E9"/>
<rect x="34.3979" y="13.7593" width="6.61499" height="6.61499" rx="1.58476" fill="#EEF0E9"/>
<rect x="41.2776" y="13.7593" width="6.61499" height="6.61499" fill="#84B523"/>
<rect y="20.6387" width="6.61499" height="6.61499" fill="#84B523"/>
<rect x="6.87964" y="20.6387" width="6.61499" height="6.61499" fill="#84B523"/>
<rect x="13.7593" y="20.6387" width="6.61499" height="6.61499" fill="#84B523"/>
<rect x="20.6387" y="20.6387" width="6.61499" height="6.61499" fill="#84B523"/>
<rect x="27.5183" y="20.6387" width="6.61499" height="6.61499" fill="#84B523"/>
<rect x="34.3979" y="20.6387" width="6.61499" height="6.61499" fill="#84B523"/>
<rect x="41.2776" y="20.6387" width="6.61499" height="6.61499" fill="#84B523"/>
<rect y="27.5186" width="6.61499" height="6.61499" fill="#84B523"/>
<rect x="6.87964" y="27.5186" width="6.61499" height="6.61499" rx="1.58476" fill="#EEF0E9"/>
<rect x="13.7593" y="27.5186" width="6.61499" height="6.61499" fill="#84B523"/>
<rect x="20.6387" y="27.5186" width="6.61499" height="6.61499" fill="#84B523"/>
<rect x="27.5183" y="27.5186" width="6.61499" height="6.61499" fill="#84B523"/>
<rect x="34.3979" y="27.5186" width="6.61499" height="6.61499" rx="1.58476" fill="#EEF0E9"/>
<rect x="41.2776" y="27.5186" width="6.61499" height="6.61499" fill="#84B523"/>
<rect y="34.3979" width="6.61499" height="6.61499" fill="#84B523"/>
<rect x="6.87964" y="34.3979" width="6.61499" height="6.61499" fill="#84B523"/>
<rect x="13.7593" y="34.3979" width="6.61499" height="6.61499" fill="#84B523"/>
<rect x="20.6387" y="34.3979" width="6.61499" height="6.61499" fill="#84B523"/>
<rect x="27.5183" y="34.3979" width="6.61499" height="6.61499" fill="#84B523"/>
<rect x="34.3979" y="34.3979" width="6.61499" height="6.61499" fill="#84B523"/>
<rect x="41.2776" y="34.3979" width="6.61499" height="6.61499" fill="#84B523"/>
<rect y="41.2773" width="6.61499" height="6.61499" fill="#84B523"/>
<rect x="6.87964" y="41.2773" width="6.61499" height="6.61499" fill="#84B523"/>
<rect x="13.7593" y="41.2773" width="6.61499" height="6.61499" rx="1.58476" fill="#EEF0E9"/>
<rect x="20.6387" y="41.2773" width="6.61499" height="6.61499" rx="1.58476" fill="#EEF0E9"/>
<rect x="27.5183" y="41.2773" width="6.61499" height="6.61499" rx="1.58476" fill="#EEF0E9"/>
<rect x="34.3979" y="41.2773" width="6.61499" height="6.61499" fill="#84B523"/>
<rect x="41.2776" y="41.2773" width="6.61499" height="6.61499" fill="#84B523"/>
</svg>
