<svg width="48" height="48" viewBox="0 0 48 48" fill="none" xmlns="http://www.w3.org/2000/svg">
<rect width="6.61499" height="6.61499" rx="1.58476" fill="#EEF0E9"/>
<rect width="6.61499" height="6.61499" rx="1.58476" transform="matrix(-1 0 0 1 13.4941 0)" fill="#EEF0E9"/>
<rect width="6.61499" height="6.61499" rx="1.58476" transform="matrix(-1 0 0 1 20.374 0)" fill="#EEF0E9"/>
<rect x="20.6387" width="6.61499" height="6.61499" rx="1.58476" fill="#EEF0E9"/>
<rect x="27.5186" width="6.61499" height="6.61499" rx="1.58476" fill="#EEF0E9"/>
<rect x="34.3975" width="6.61499" height="6.61499" rx="1.58476" fill="#EEF0E9"/>
<rect x="41.2773" width="6.61499" height="6.61499" rx="1.58476" fill="#EEF0E9"/>
<rect y="6.87988" width="6.61499" height="6.61499" fill="#84B523"/>
<rect x="6.87988" y="6.87988" width="6.61499" height="6.61499" fill="#84B523"/>
<rect x="13.7588" y="6.87988" width="6.61499" height="6.61499" fill="#84B523"/>
<rect x="20.6387" y="6.87988" width="6.61499" height="6.61499" fill="#84B523"/>
<rect x="27.5186" y="6.87988" width="6.61499" height="6.61499" fill="#84B523"/>
<rect x="34.3975" y="6.87988" width="6.61499" height="6.61499" fill="#84B523"/>
<rect x="41.2773" y="6.87988" width="6.61499" height="6.61499" fill="#84B523"/>
<rect y="13.7593" width="6.61499" height="6.61499" fill="#84B523"/>
<rect x="6.87988" y="13.7593" width="6.61499" height="6.61499" fill="#84B523"/>
<rect x="13.7588" y="13.7593" width="6.61499" height="6.61499" rx="1.58476" fill="#EEF0E9"/>
<rect x="20.6387" y="13.7593" width="6.61499" height="6.61499" rx="1.58476" fill="#EEF0E9"/>
<rect x="27.5186" y="13.7593" width="6.61499" height="6.61499" rx="1.58476" fill="#EEF0E9"/>
<rect x="34.3975" y="13.7593" width="6.61499" height="6.61499" fill="#84B523"/>
<rect x="41.2773" y="13.7593" width="6.61499" height="6.61499" fill="#84B523"/>
<rect y="20.6387" width="6.61499" height="6.61499" fill="#84B523"/>
<rect x="6.87988" y="20.6387" width="6.61499" height="6.61499" rx="1.58476" fill="#EEF0E9"/>
<rect x="13.7588" y="20.6387" width="6.61499" height="6.61499" rx="1.58476" fill="#EEF0E9"/>
<rect x="20.6387" y="20.6387" width="6.61499" height="6.61499" fill="#84B523"/>
<rect x="27.5186" y="20.6387" width="6.61499" height="6.61499" rx="1.58476" fill="#EEF0E9"/>
<rect x="34.3975" y="20.6387" width="6.61499" height="6.61499" rx="1.58476" fill="#EEF0E9"/>
<rect x="41.2773" y="20.6387" width="6.61499" height="6.61499" fill="#84B523"/>
<rect y="27.5186" width="6.61499" height="6.61499" fill="#84B523"/>
<rect x="6.87988" y="27.5186" width="6.61499" height="6.61499" fill="#84B523"/>
<rect x="13.7588" y="27.5186" width="6.61499" height="6.61499" rx="1.58476" fill="#EEF0E9"/>
<rect x="20.6387" y="27.5186" width="6.61499" height="6.61499" rx="1.58476" fill="#EEF0E9"/>
<rect x="27.5186" y="27.5186" width="6.61499" height="6.61499" rx="1.58476" fill="#EEF0E9"/>
<rect x="34.3975" y="27.5186" width="6.61499" height="6.61499" fill="#84B523"/>
<rect x="41.2773" y="27.5186" width="6.61499" height="6.61499" fill="#84B523"/>
<rect y="34.3979" width="6.61499" height="6.61499" fill="#84B523"/>
<rect x="6.87988" y="34.3979" width="6.61499" height="6.61499" fill="#84B523"/>
<rect x="13.7588" y="34.3979" width="6.61499" height="6.61499" fill="#84B523"/>
<rect x="20.6387" y="34.3979" width="6.61499" height="6.61499" fill="#84B523"/>
<rect x="27.5186" y="34.3979" width="6.61499" height="6.61499" fill="#84B523"/>
<rect x="34.3975" y="34.3979" width="6.61499" height="6.61499" fill="#84B523"/>
<rect x="41.2773" y="34.3979" width="6.61499" height="6.61499" fill="#84B523"/>
<rect y="41.2773" width="6.61499" height="6.61499" rx="1.58476" fill="#EEF0E9"/>
<rect x="6.87988" y="41.2773" width="6.61499" height="6.61499" rx="1.58476" fill="#EEF0E9"/>
<rect x="13.7588" y="41.2773" width="6.61499" height="6.61499" rx="1.58476" fill="#EEF0E9"/>
<rect x="20.6387" y="41.2773" width="6.61499" height="6.61499" rx="1.58476" fill="#EEF0E9"/>
<rect x="27.5186" y="41.2773" width="6.61499" height="6.61499" rx="1.58476" fill="#EEF0E9"/>
<rect x="34.3975" y="41.2773" width="6.61499" height="6.61499" rx="1.58476" fill="#EEF0E9"/>
<rect x="41.2773" y="41.2773" width="6.61499" height="6.61499" rx="1.58476" fill="#EEF0E9"/>
</svg>
