<svg width="176" height="150" viewBox="0 0 176 150" fill="none" xmlns="http://www.w3.org/2000/svg">
<rect x="0.796387" width="24.1733" height="24.1733" fill="#899BB3"/>
<rect x="25.9365" width="24.1733" height="24.1733" fill="#BDC6D0"/>
<rect x="51.0767" width="24.1733" height="24.1733" fill="#BDC6D0"/>
<rect x="76.2168" width="24.1733" height="24.1733" fill="#BDC6D0"/>
<rect x="101.357" width="24.1733" height="24.1733" fill="#BDC6D0"/>
<rect x="126.498" width="24.1733" height="24.1733" rx="8.14392" fill="#E8E9E8"/>
<rect x="151.638" width="24.1733" height="24.1733" rx="8.14392" fill="#E8E9E8"/>
<rect x="0.796387" y="25.1406" width="24.1733" height="24.1733" fill="#899BB3"/>
<rect x="25.9365" y="25.1406" width="24.1733" height="24.1733" fill="#BDC6D0"/>
<rect x="51.0767" y="25.1406" width="24.1733" height="24.1733" rx="8.14392" fill="#E8E9E8"/>
<rect x="76.2168" y="25.1406" width="24.1733" height="24.1733" fill="#899BB3"/>
<rect x="101.357" y="25.1406" width="24.1733" height="24.1733" fill="#BDC6D0"/>
<rect x="126.498" y="25.1406" width="24.1733" height="24.1733" rx="8.14392" fill="#E8E9E8"/>
<rect x="151.638" y="25.1406" width="24.1733" height="24.1733" rx="8.14392" fill="#E8E9E8"/>
<rect x="0.796387" y="50.2803" width="24.1733" height="24.1733" fill="#899BB3"/>
<rect x="25.9365" y="50.2803" width="24.1733" height="24.1733" fill="#BDC6D0"/>
<rect x="51.0767" y="50.2803" width="24.1733" height="24.1733" fill="#BDC6D0"/>
<rect x="76.2168" y="50.2803" width="24.1733" height="24.1733" fill="#BDC6D0"/>
<rect x="101.357" y="50.2803" width="24.1733" height="24.1733" fill="#BDC6D0"/>
<rect x="126.498" y="50.2803" width="24.1733" height="24.1733" fill="#BDC6D0"/>
<rect x="151.638" y="50.2803" width="24.1733" height="24.1733" fill="#BDC6D0"/>
<rect x="0.796387" y="75.4209" width="24.1733" height="24.1733" fill="#899BB3"/>
<rect x="25.9365" y="75.4209" width="24.1733" height="24.1733" fill="#BDC6D0"/>
<rect x="51.0767" y="75.4209" width="24.1733" height="24.1733" rx="8.14392" fill="#E8E9E8"/>
<rect x="76.2168" y="75.4209" width="24.1733" height="24.1733" fill="#899BB3"/>
<rect x="101.357" y="75.4209" width="24.1733" height="24.1733" fill="#BDC6D0"/>
<rect x="126.498" y="75.4209" width="24.1733" height="24.1733" rx="8.14392" fill="#E8E9E8"/>
<rect x="151.638" y="75.4209" width="24.1733" height="24.1733" fill="#899BB3"/>
<rect x="0.796387" y="100.561" width="24.1733" height="24.1733" fill="#899BB3"/>
<rect x="25.9365" y="100.561" width="24.1733" height="24.1733" fill="#BDC6D0"/>
<rect x="51.0767" y="100.561" width="24.1733" height="24.1733" fill="#BDC6D0"/>
<rect x="76.2168" y="100.561" width="24.1733" height="24.1733" fill="#BDC6D0"/>
<rect x="101.357" y="100.561" width="24.1733" height="24.1733" fill="#BDC6D0"/>
<rect x="126.498" y="100.561" width="24.1733" height="24.1733" fill="#BDC6D0"/>
<rect x="151.638" y="100.561" width="24.1733" height="24.1733" fill="#BDC6D0"/>
<rect x="0.796387" y="125.701" width="24.1733" height="24.1733" fill="#899BB3"/>
<rect x="25.9365" y="125.701" width="24.1733" height="24.1733" fill="#BDC6D0"/>
<rect width="24.1733" height="24.1733" rx="8.14392" transform="matrix(-1 0 0 1 75.25 125.701)" fill="#E8E9E8"/>
<rect width="24.1733" height="24.1733" transform="matrix(-1 0 0 1 100.39 125.701)" fill="#899BB3"/>
<rect x="101.357" y="125.701" width="24.1733" height="24.1733" fill="#BDC6D0"/>
<rect x="126.498" y="125.701" width="24.1733" height="24.1733" rx="8.14392" fill="#E8E9E8"/>
<rect x="151.638" y="125.701" width="24.1733" height="24.1733" fill="#899BB3"/>
</svg>
