<svg width="176" height="150" viewBox="0 0 176 150" fill="none" xmlns="http://www.w3.org/2000/svg">
<rect x="0.296387" width="24.1733" height="24.1733" fill="#EAB464"/>
<rect width="24.1733" height="24.1733" transform="matrix(-1 0 0 1 49.6099 0)" fill="#EED3A9"/>
<rect width="24.1733" height="24.1733" transform="matrix(-1 0 0 1 74.75 0)" fill="#EED3A9"/>
<rect x="75.7168" width="24.1733" height="24.1733" fill="#EED3A9"/>
<rect x="100.857" width="24.1733" height="24.1733" fill="#EED3A9"/>
<rect x="125.998" width="24.1733" height="24.1733" fill="#EED3A9"/>
<rect x="151.138" width="24.1733" height="24.1733" fill="#EED3A9"/>
<rect x="0.296387" y="25.1406" width="24.1733" height="24.1733" fill="#EAB464"/>
<rect x="25.4365" y="25.1406" width="24.1733" height="24.1733" fill="#EED3A9"/>
<rect x="50.5767" y="25.1406" width="24.1733" height="24.1733" rx="8.14392" fill="#F1ECE0"/>
<rect x="75.7168" y="25.1406" width="24.1733" height="24.1733" rx="8.14392" fill="#F1ECE0"/>
<rect x="100.857" y="25.1406" width="24.1733" height="24.1733" rx="8.14392" fill="#F1ECE0"/>
<rect x="125.998" y="25.1406" width="24.1733" height="24.1733" rx="8.14392" fill="#F1ECE0"/>
<rect x="151.138" y="25.1406" width="24.1733" height="24.1733" fill="#EED3A9"/>
<rect x="0.296387" y="50.2803" width="24.1733" height="24.1733" fill="#EAB464"/>
<rect x="25.4365" y="50.2803" width="24.1733" height="24.1733" fill="#EED3A9"/>
<rect x="50.5767" y="50.2803" width="24.1733" height="24.1733" rx="8.14392" fill="#F1ECE0"/>
<rect x="75.7168" y="50.2803" width="24.1733" height="24.1733" rx="8.14392" fill="#F1ECE0"/>
<rect x="100.857" y="50.2803" width="24.1733" height="24.1733" rx="8.14392" fill="#F1ECE0"/>
<rect x="125.998" y="50.2803" width="24.1733" height="24.1733" rx="8.14392" fill="#F1ECE0"/>
<rect x="151.138" y="50.2803" width="24.1733" height="24.1733" fill="#EED3A9"/>
<rect x="0.296387" y="75.4209" width="24.1733" height="24.1733" fill="#EAB464"/>
<rect x="25.4365" y="75.4209" width="24.1733" height="24.1733" fill="#EED3A9"/>
<rect x="50.5767" y="75.4209" width="24.1733" height="24.1733" rx="8.14392" fill="#F1ECE0"/>
<rect x="75.7168" y="75.4209" width="24.1733" height="24.1733" rx="8.14392" fill="#F1ECE0"/>
<rect x="100.857" y="75.4209" width="24.1733" height="24.1733" rx="8.14392" fill="#F1ECE0"/>
<rect x="125.998" y="75.4209" width="24.1733" height="24.1733" rx="8.14392" fill="#F1ECE0"/>
<rect x="151.138" y="75.4209" width="24.1733" height="24.1733" fill="#EED3A9"/>
<rect x="0.296387" y="100.561" width="24.1733" height="24.1733" fill="#EAB464"/>
<rect x="25.4365" y="100.561" width="24.1733" height="24.1733" fill="#EED3A9"/>
<rect x="50.5767" y="100.561" width="24.1733" height="24.1733" fill="#EED3A9"/>
<rect x="75.7168" y="100.561" width="24.1733" height="24.1733" fill="#EED3A9"/>
<rect x="100.857" y="100.561" width="24.1733" height="24.1733" fill="#EED3A9"/>
<rect x="125.998" y="100.561" width="24.1733" height="24.1733" fill="#EED3A9"/>
<rect x="151.138" y="100.561" width="24.1733" height="24.1733" fill="#EED3A9"/>
<rect x="0.296387" y="125.701" width="24.1733" height="24.1733" rx="8.14392" fill="#F1ECE0"/>
<rect x="25.4365" y="125.701" width="24.1733" height="24.1733" fill="#EAB464"/>
<rect x="50.5767" y="125.701" width="24.1733" height="24.1733" fill="#EED3A9"/>
<rect x="75.7168" y="125.701" width="24.1733" height="24.1733" fill="#EED3A9"/>
<rect x="100.857" y="125.701" width="24.1733" height="24.1733" fill="#EED3A9"/>
<rect x="125.998" y="125.701" width="24.1733" height="24.1733" fill="#EED3A9"/>
<rect x="151.138" y="125.701" width="24.1733" height="24.1733" rx="8.14392" fill="#F1ECE0"/>
</svg>
