<svg width="193" height="64" viewBox="0 0 193 64" fill="none" xmlns="http://www.w3.org/2000/svg">
<path d="M0.359375 46.2471V17.4231H6.80877V36.2834L22.3385 17.4231H27.8915V46.2471H21.3956V27.3984L5.90073 46.2471H0.359375Z" fill="#A6A6A6"/>
<path d="M35.9086 46.2464V17.4225H42.358V29.0217H56.8284V17.4225H63.2778V46.2464H56.8284V34.6473H42.358V46.2464H35.9086Z" fill="#A6A6A6"/>
<path d="M85.537 16.6438C88.6557 16.5792 91.7349 17.3482 94.4544 18.8708V24.7516C92.0709 23.1565 89.2579 22.3193 86.3868 22.3506C81.2645 22.3506 76.0841 25.0532 76.0841 31.8387C76.0841 38.3806 81.0899 41.3268 86.2704 41.3268C89.228 41.3116 92.1329 40.5451 94.7105 39.0998V45.0501C91.7377 46.4134 88.4947 47.0914 85.2227 47.0336C77.5043 47.0336 69.6114 42.3939 69.6114 32.0823C69.5648 21.3298 77.8187 16.6438 85.537 16.6438Z" fill="#A6A6A6"/>
<path d="M101.166 46.2466V17.4227H107.615V36.2829L123.099 17.4227H128.64V46.2466H122.191V27.398L106.707 46.2466H101.166Z" fill="#A6A6A6"/>
<path d="M143.734 46.2465V23.0481H133.734V17.4225H160.137V23.0713H150.184V46.2697L143.734 46.2465Z" fill="#A6A6A6"/>
<path d="M165.139 46.2464V17.4225H171.588V36.2828L187.083 17.4225H192.624V46.2464H186.175V27.3978L170.692 46.2464H165.139Z" fill="#A6A6A6"/>
</svg>
