<svg width="154" height="64" viewBox="0 0 154 64" fill="none" xmlns="http://www.w3.org/2000/svg">
<path d="M114.153 17.4663V29.1731H101.037V17.4663H93.6094V46.5333H101.037V36.8927H114.153V46.5333H121.58V17.4663H114.153Z" fill="#A6A6A6"/>
<path d="M82.4639 17.4664V29.1732H71.9573V17.4664H64.5294V36.8929H82.4639V46.5335H89.8919V17.4664H82.4639Z" fill="#A6A6A6"/>
<path d="M28.3328 17.4664H0.359375V25.1861H10.631V46.5335H18.059V25.1861H28.3328V17.4664Z" fill="#A6A6A6"/>
<path d="M46.029 16.64C37.8657 16.64 31.2494 23.5176 31.2494 31.9989C31.2494 40.4803 37.8657 47.36 46.029 47.36C54.1924 47.36 60.811 40.4824 60.811 31.9989C60.811 23.5153 54.1924 16.64 46.029 16.64ZM46.029 24.6478C47.4494 24.6296 48.843 25.0455 50.0326 25.8425C51.2221 26.6394 52.1541 27.7815 52.7099 29.1236C53.2656 30.4657 53.4201 31.9472 53.1538 33.3796C52.8873 34.812 52.2121 36.1308 51.2138 37.1683C50.2155 38.2057 48.9394 38.9151 47.5474 39.206C46.1555 39.497 44.7108 39.3566 43.3968 38.8024C42.0828 38.2483 40.9591 37.3056 40.1683 36.0941C39.3775 34.8827 38.9555 33.4572 38.9557 31.9989C38.947 30.062 39.6868 28.2006 41.0126 26.8226C42.3385 25.4446 44.1424 24.6626 46.029 24.6478Z" fill="#A6A6A6"/>
<path d="M139.179 16.64C131.015 16.64 124.399 23.5176 124.399 31.9989C124.399 40.4803 131.015 47.36 139.179 47.36C147.343 47.36 153.961 40.4824 153.961 31.9989C153.961 23.5153 147.343 16.64 139.179 16.64ZM139.179 24.6478C140.6 24.6296 141.993 25.0455 143.183 25.8425C144.372 26.6394 145.304 27.7815 145.86 29.1236C146.415 30.4657 146.57 31.9472 146.304 33.3796C146.038 34.812 145.362 36.1308 144.363 37.1683C143.366 38.2057 142.09 38.9151 140.697 39.206C139.306 39.497 137.861 39.3566 136.546 38.8024C135.233 38.2483 134.109 37.3056 133.318 36.0941C132.527 34.8827 132.106 33.4572 132.106 31.9989C132.097 30.062 132.837 28.2006 134.163 26.8226C135.489 25.4446 137.293 24.6626 139.179 24.6478Z" fill="#A6A6A6"/>
</svg>
