<svg width="245" height="64" viewBox="0 0 245 64" fill="none" xmlns="http://www.w3.org/2000/svg">
<path fill-rule="evenodd" clip-rule="evenodd" d="M9.85787 33.7326H7.81785V44.6726H0.359375V18.5988H7.81785V27.9319H9.85787C9.82139 26.2909 9.94808 24.6502 10.2364 23.03C10.4399 22.0738 10.9562 21.196 11.7175 20.5121C12.5019 19.8261 13.4654 19.3338 14.5169 19.0817C15.8087 18.7797 17.1388 18.6358 18.4722 18.6536C19.8504 18.6251 21.2256 18.7802 22.5543 19.1141C23.6336 19.3885 24.6085 19.9291 25.3717 20.6764C26.1438 21.4687 26.6343 22.4555 26.7793 23.5068C27.0206 25.4674 27.1174 27.4406 27.0687 29.413V33.8422C27.1187 35.82 27.0221 37.7988 26.7793 39.7647C26.6428 40.8182 26.1511 41.8071 25.3717 42.5949C24.5973 43.359 23.6122 43.9196 22.5188 44.2182C21.1999 44.5688 19.8303 44.7349 18.4566 44.7112C17.165 44.7284 15.8769 44.5844 14.6283 44.283C13.6084 44.0211 12.6687 43.5483 11.8823 42.9013C11.205 42.3517 10.7 41.6481 10.4191 40.8622C10.1627 39.9749 10.0134 39.0645 9.97368 38.1476C9.90243 37.0783 9.86454 35.6297 9.86454 33.8381V33.7225L9.85787 33.7326ZM19.628 38.2571V25.343C19.6634 24.5878 19.6029 23.8314 19.4477 23.0888C19.3949 22.8963 19.2665 22.728 19.0868 22.6158C18.907 22.5036 18.6884 22.4554 18.4722 22.4801C18.2873 22.4712 18.1035 22.5116 17.9433 22.5962C17.7831 22.6809 17.6535 22.8063 17.5703 22.957C17.3233 23.7366 17.2312 24.5501 17.2985 25.3592V38.7341C17.278 39.2623 17.3532 39.7902 17.5213 40.2962C17.5862 40.4677 17.7122 40.6145 17.8793 40.713C18.0464 40.8115 18.245 40.8562 18.4433 40.8399C18.6244 40.8517 18.8054 40.816 18.9652 40.7375C19.1249 40.6587 19.2568 40.5402 19.3452 40.3957C19.6022 39.7085 19.7006 38.9805 19.6347 38.2571H19.628ZM29.6142 44.6726V23.3201H40.8275V27.0047H36.7276V44.6747L29.6142 44.6726ZM59.6798 29.9811H52.2503V25.4424C52.3021 24.614 52.2232 23.7832 52.0163 22.9752C51.9193 22.8045 51.7665 22.6653 51.5791 22.577C51.3916 22.4887 51.1787 22.4556 50.9697 22.4822C50.7299 22.4512 50.4857 22.4924 50.2739 22.5993C50.0622 22.7062 49.8943 22.873 49.7959 23.0746C49.5761 23.92 49.4905 24.7899 49.5421 25.6575V37.766C49.493 38.6009 49.5786 39.4374 49.7959 40.2495C49.886 40.4438 50.044 40.6058 50.2453 40.71C50.4467 40.8142 50.6801 40.8548 50.9094 40.8258C51.1345 40.8509 51.3625 40.8082 51.5582 40.704C51.7541 40.6 51.9071 40.4403 51.9941 40.2495C52.2184 39.3601 52.303 38.4461 52.2458 37.5349V34.248H59.6863V35.2523C59.7806 37.1786 59.5677 39.1074 59.054 40.978C58.5298 42.2283 57.5469 43.2748 56.2723 43.9402C54.6812 44.822 52.8423 45.262 50.9807 45.2063C49.1091 45.2706 47.2504 44.8969 45.5824 44.1208C44.2603 43.492 43.2525 42.4263 42.765 41.1423C42.231 39.269 41.9997 37.3345 42.0791 35.4004V27.7838C42.0544 26.3715 42.129 24.9592 42.3019 23.5555C42.4663 22.5681 42.9012 21.6344 43.5669 20.8408C44.3109 19.9299 45.3102 19.2179 46.4598 18.7793C48.0209 18.2271 49.6912 17.9779 51.364 18.0478C53.037 18.1177 54.6752 18.5051 56.1744 19.1852C57.4611 19.8148 58.4598 20.8412 58.9916 22.0805C59.5235 23.8309 59.7489 25.6468 59.6597 27.4612V29.9872L59.6798 29.9811ZM76.2759 23.3181V27.7939H72.1936V44.6726H65.078V27.7939H60.9781V23.3181H76.2759ZM84.9614 23.3181L84.8345 25.2111C85.3937 24.5134 86.1078 23.9307 86.9303 23.5007C87.7014 23.1234 88.565 22.9307 89.4402 22.9407C90.4685 22.9188 91.4767 23.2038 92.3108 23.7523C93.0434 24.1946 93.5805 24.8586 93.8275 25.627C94.0761 26.814 94.1793 28.0226 94.1348 29.2304V38.2287C94.1924 39.6192 94.0653 41.0111 93.7561 42.3738C93.5164 43.1781 92.9619 43.8744 92.1972 44.3318C91.3575 44.8352 90.3669 45.0882 89.3622 45.0561C88.5063 45.0651 87.6623 44.8722 86.9125 44.4961C86.1033 44.0765 85.4016 43.5046 84.8546 42.8182V47.72H77.7279V23.3201L84.9614 23.3181ZM87.0015 29.5205C87.0466 28.7168 86.9921 27.9109 86.8389 27.1183C86.7297 26.8383 86.4424 26.6902 85.948 26.6902C85.7611 26.6683 85.5714 26.7031 85.4083 26.7893C85.2453 26.8755 85.1179 27.0082 85.0461 27.167C84.8702 27.9344 84.8036 28.7193 84.8478 29.5023V38.3525C84.797 39.1642 84.872 39.9784 85.0706 40.771C85.1456 40.9316 85.2764 41.0654 85.4431 41.1515C85.6097 41.2377 85.8029 41.2714 85.9926 41.2477C86.438 41.2477 86.732 41.0996 86.8412 40.8035C86.9892 40.0936 87.0439 39.3703 87.0037 38.6487V29.5185L87.0015 29.5205ZM112.626 30.8211V36.0537C112.67 37.4695 112.561 38.8857 112.301 40.2821C112.066 41.2044 111.603 42.0657 110.947 42.8C110.241 43.5821 109.318 44.1784 108.275 44.5265C107.07 44.9202 105.797 45.11 104.517 45.0865C103.162 45.119 101.81 44.9582 100.509 44.6097C99.5269 44.3656 98.6432 43.8689 97.9631 43.1792C97.334 42.5111 96.8883 41.7162 96.6624 40.8603C96.3649 39.5179 96.2379 38.1488 96.2839 36.78V31.2857C96.2167 29.708 96.4547 28.1318 96.9876 26.6293C97.4733 25.4957 98.3721 24.5486 99.5331 23.947C100.967 23.2255 102.591 22.8747 104.228 22.9326C105.635 22.8964 107.036 23.12 108.346 23.5899C109.286 23.9098 110.131 24.4246 110.814 25.0938C111.498 25.7629 112.001 26.5679 112.283 27.4449C112.556 28.5563 112.672 29.6951 112.626 30.8333V30.8211ZM105.5 29.2081C105.545 28.5118 105.478 27.8132 105.301 27.1345C105.23 26.9927 105.111 26.875 104.962 26.7981C104.813 26.7213 104.641 26.6892 104.471 26.7064C104.298 26.6911 104.125 26.7238 103.973 26.8003C103.822 26.8767 103.699 26.9933 103.622 27.1345C103.424 27.8099 103.348 28.5105 103.399 29.2081V38.8496C103.355 39.5142 103.43 40.1812 103.622 40.8238C103.702 40.9586 103.819 41.0718 103.962 41.1525C104.106 41.233 104.269 41.2779 104.438 41.283C104.606 41.2879 104.772 41.2524 104.921 41.1805C105.069 41.1084 105.194 41.0023 105.283 40.8724C105.463 40.284 105.53 39.6717 105.482 39.0625V29.2081H105.5ZM132.67 44.6726H126.434V33.1239L121.468 44.6726H114.967V23.3201H121.178V34.7715L126.053 23.3201H132.645V44.6747L132.67 44.6726ZM125.791 17.0162H128.788C128.783 18.3035 128.285 19.5488 127.378 20.5364C126.92 20.9864 126.36 21.3392 125.735 21.5696C125.111 21.7999 124.439 21.9023 123.766 21.8694C123.091 21.9065 122.416 21.8044 121.791 21.5708C121.165 21.3372 120.606 20.9781 120.154 20.5202C119.261 19.5265 118.771 18.2838 118.764 17H121.762C121.906 18.4649 122.575 19.2055 123.766 19.2055C124.958 19.2055 125.643 18.4974 125.788 17.0183L125.791 17.0162ZM152.023 44.6747H145.812V32.8135L141.948 44.6747H135.429V18.5988H141.64V30.3666L145.812 18.5988H152.023V44.6747ZM171.526 44.6747H164.428V36.7943H161.864V44.6747H154.785V23.3201H161.864V31.0017H164.428V23.3181H171.526V44.6747ZM190.614 39.0484C190.717 39.8507 190.632 40.6638 190.363 41.4334C190.094 42.2032 189.648 42.9119 189.055 43.512C186.974 44.5196 184.607 44.9327 182.265 44.6971H174.084V23.3201H182.518C184.61 23.1211 186.713 23.58 188.478 24.6206C189.082 25.2166 189.539 25.923 189.819 26.6927C190.1 27.4624 190.197 28.2778 190.104 29.0843C190.153 29.6067 190.084 30.1328 189.898 30.6293C189.713 31.1258 189.417 31.5818 189.028 31.9685C188.639 32.3551 188.166 32.664 187.64 32.8755C187.113 33.0869 186.544 33.1964 185.968 33.197C187.26 33.3446 188.457 33.8901 189.362 34.743C190.2 35.5691 190.647 36.6623 190.607 37.7864V39.0525L190.614 39.0484ZM181.169 31.2492C182.253 31.2492 182.919 31.1174 183.155 30.8718C183.448 30.4325 183.574 29.918 183.516 29.4069C183.545 29.1825 183.525 28.9551 183.457 28.7378C183.389 28.5206 183.274 28.3177 183.12 28.1409C182.526 27.8403 181.843 27.7195 181.169 27.7959V31.2492ZM183.516 38.0442V37.3198C183.516 36.3986 183.389 35.8224 183.12 35.5932C182.526 35.2926 181.843 35.1718 181.169 35.2482V40.201C181.829 40.267 182.494 40.1346 183.064 39.8235C183.437 39.2972 183.595 38.6679 183.509 38.0461L183.516 38.0442ZM208.852 34.3758H199.605V38.9977C199.551 39.6304 199.63 40.2668 199.839 40.8724C199.926 41.0133 200.057 41.1271 200.215 41.1993C200.374 41.2716 200.554 41.2992 200.729 41.2783C200.952 41.302 201.178 41.2604 201.373 41.1598C201.566 41.0591 201.722 40.9043 201.813 40.7183C202.043 40.0202 202.134 39.2907 202.086 38.5634V35.7494H208.858V37.3279C208.887 38.3482 208.796 39.3685 208.587 40.3714C208.336 41.2007 207.899 41.9736 207.304 42.6418C206.64 43.4413 205.755 44.0658 204.74 44.4514C203.506 44.8935 202.184 45.1006 200.859 45.0602C199.501 45.0818 198.148 44.881 196.867 44.4677C195.832 44.149 194.904 43.5896 194.178 42.8447C193.549 42.1834 193.092 41.4019 192.841 40.558C192.555 39.3644 192.434 38.1431 192.48 36.9222V30.6872C192.403 29.1801 192.687 27.6758 193.311 26.2783C193.882 25.1912 194.844 24.3148 196.036 23.7949C197.387 23.204 198.873 22.9107 200.37 22.9387C202.097 22.8793 203.811 23.237 205.337 23.9754C206.56 24.5892 207.525 25.5555 208.081 26.7226C208.68 28.2686 208.95 29.905 208.875 31.5434V34.3737L208.852 34.3758ZM201.699 29.342C201.742 28.6243 201.674 27.9048 201.502 27.2035C201.446 27.0548 201.338 26.9271 201.195 26.8408C201.05 26.7544 200.878 26.7143 200.706 26.7267C200.219 26.7267 199.912 26.8586 199.785 27.1325C199.613 27.862 199.553 28.6096 199.605 29.3542V30.9165H201.699V29.342ZM226.946 31.3811H220.211V28.9139C220.257 28.3247 220.178 27.7331 219.977 27.1711C219.907 27.023 219.788 26.8989 219.635 26.8163C219.482 26.7336 219.307 26.6966 219.129 26.7104C218.963 26.6917 218.793 26.7206 218.644 26.7933C218.495 26.866 218.373 26.9788 218.298 27.1163C218.105 27.7024 218.029 28.3155 218.076 28.9261V38.9936C218.041 39.5789 218.151 40.1637 218.4 40.704C218.478 40.8738 218.609 41.0191 218.775 41.1216C218.943 41.2242 219.138 41.2792 219.341 41.2802C219.554 41.2953 219.764 41.2452 219.94 41.1376C220.118 41.0303 220.249 40.8718 220.317 40.6877C220.526 39.9526 220.611 39.1924 220.568 38.4336V35.8833H226.925C226.936 37.1633 226.871 38.4428 226.726 39.716C226.565 40.6662 226.163 41.5693 225.553 42.3536C224.906 43.2351 224.007 43.9373 222.95 44.3825C221.697 44.8698 220.34 45.1 218.978 45.0561C217.32 45.1315 215.67 44.8083 214.192 44.1188C213.045 43.5259 212.16 42.5906 211.682 41.471C211.128 39.9162 210.884 38.2835 210.96 36.6501V30.5756C210.892 29.1834 211.093 27.7911 211.557 26.463C212.088 25.4049 212.99 24.5373 214.121 23.9958C215.57 23.239 217.22 22.8632 218.889 22.9103C220.555 22.8682 222.203 23.2377 223.658 23.9795C224.859 24.5723 225.794 25.534 226.293 26.6942C226.786 28.215 227.006 29.7984 226.944 31.3831L226.946 31.3811ZM243.218 23.3201V27.7959H239.136V44.6747H232.008V27.7959H227.908V23.3201H243.218Z" fill="#A6A6A6"/>
</svg>
