<svg width="189" height="64" viewBox="0 0 189 64" fill="none" xmlns="http://www.w3.org/2000/svg">
<path d="M2.52148 17.2947V24.6233H5.2162V46.6937H13.5538V17.2957L2.52148 17.2947ZM48.924 38.0048C50.5752 39.6032 52.6181 40.4038 55.0556 40.4038C57.493 40.4038 59.533 39.6032 61.1756 38.0048C62.8172 36.4025 63.6389 34.4009 63.6389 31.9981C63.6389 29.5923 62.8181 27.5936 61.1756 26.0029C59.533 24.4083 57.4968 23.6144 55.0556 23.6144C52.6181 23.6144 50.5743 24.4112 48.924 26.0029C47.2748 27.5936 46.453 29.5923 46.453 31.9981C46.453 34.4048 47.2786 36.4025 48.924 38.0048ZM67.2188 42.9584C63.8847 46.0093 59.8239 47.5395 55.044 47.5395C50.2604 47.5395 46.2024 46.0131 42.8693 42.9574C39.5352 39.9027 37.8696 36.247 37.8696 31.9981C37.8696 27.7453 39.5352 24.0944 42.8693 21.0387C46.1996 17.983 50.2604 16.4537 55.0431 16.4537C59.8239 16.4537 63.8799 17.983 67.2178 21.0387C70.5528 24.0915 72.2175 27.7453 72.2175 31.9981C72.2175 36.248 70.5528 39.9027 67.2178 42.9574L67.2188 42.9584ZM96.47 35.3571H99.1119V38.5424C99.1119 38.5424 99.0178 38.6681 98.6386 38.9897C98.1509 39.4045 97.621 39.6349 96.7474 39.9421C95.8719 40.2493 94.9042 40.4 93.8434 40.4C91.3186 40.4 89.2191 39.5993 87.5429 38.0009C85.8629 36.4025 85.0258 34.4009 85.0258 31.9952C85.0258 29.5885 85.862 27.5897 87.5429 25.999C89.2191 24.4083 91.3234 23.6105 93.8434 23.6105C94.7746 23.6105 95.6981 23.7478 96.6063 24.0118C97.5183 24.2787 98.2488 24.5782 98.8095 24.9133C99.3692 25.2493 99.9068 25.6313 100.425 26.0643C100.944 26.4934 101.269 26.7968 101.417 26.9667C101.557 27.1395 101.674 27.2758 101.761 27.3881L106.84 22.3443L106.345 21.7529C106.031 21.3421 105.508 20.8505 104.785 20.2774C103.978 19.6471 103.129 19.0711 102.245 18.5533C101.277 17.9801 100.047 17.4886 98.556 17.0777C97.0198 16.6625 95.4348 16.4552 93.8434 16.4614C89.053 16.4614 84.9922 17.9907 81.6572 21.0464C78.3231 24.1011 76.6546 27.752 76.6546 32.0057C76.6546 36.2585 78.3231 39.9094 81.6572 42.9651C84.9912 46.0208 89.052 47.5462 93.8434 47.5462C95.4635 47.5495 97.077 47.3397 98.6424 46.9222C100.191 46.5037 101.462 46.0352 102.45 45.5187C103.429 45.0068 104.359 44.4059 105.228 43.7235C106.087 43.0448 106.655 42.5753 106.927 42.3085C107.2 42.0416 107.393 41.8285 107.51 41.6624V30.3257H96.4776V35.3686L96.47 35.3571ZM131.035 28.8598L121.57 17.2947H114.084V46.6937H122.451V29.2697L131.035 39.559L139.637 29.2697V46.6937H148.006V17.2957H140.52L131.035 28.8598ZM169.578 25.4979L172.439 34.1091H166.716L169.578 25.4979ZM164.953 17.2976L153.269 46.6985H162.304L164.498 40.4077H174.63L176.848 46.6985H185.881L174.202 17.2985L164.953 17.2976ZM28.741 21.5369C25.6575 18.7049 21.7666 17.2937 17.0616 17.2937H15.4796V24.4477H17.0616C19.3848 24.4477 21.2856 25.1513 22.7612 26.5577C24.2376 27.9689 24.9759 29.7795 24.9759 31.9952C24.9759 34.1523 24.1925 35.9561 22.6287 37.399C21.0658 38.8419 19.2082 39.559 17.0578 39.559H15.4767V46.6947H17.0578C21.7474 46.6947 25.6383 45.2806 28.7256 42.4525C31.814 39.6205 33.3624 36.1357 33.3624 31.9952C33.3624 27.8537 31.8178 24.3689 28.7372 21.5369H28.741Z" fill="#A6A6A6"/>
</svg>
