<svg width="133" height="24" viewBox="0 0 133 24" fill="none" xmlns="http://www.w3.org/2000/svg">
<rect width="3.87096" height="3.87096" rx="0.927372" fill="#3A3D33"/>
<rect width="3.87096" height="3.87096" rx="0.927372" transform="matrix(-1 0 0 1 7.89087 0)" fill="#3A3D33"/>
<rect width="3.87096" height="3.87096" rx="0.927372" transform="matrix(-1 0 0 1 11.9106 0)" fill="#3A3D33"/>
<rect x="12.0593" width="3.87096" height="3.87096" fill="#D5FC7B"/>
<rect x="16.0791" width="3.87096" height="3.87096" fill="#D5FC7B"/>
<rect x="20.0989" width="3.87096" height="3.87096" fill="#D5FC7B"/>
<rect y="4.01978" width="3.87096" height="3.87096" rx="0.927372" fill="#3A3D33"/>
<rect x="4.01978" y="4.01978" width="3.87096" height="3.87096" rx="0.927372" fill="#3A3D33"/>
<rect x="8.03955" y="4.01978" width="3.87096" height="3.87096" rx="0.927372" fill="#3A3D33"/>
<rect x="12.0593" y="4.01978" width="3.87096" height="3.87096" fill="#D5FC7B"/>
<rect x="16.0791" y="4.01978" width="3.87096" height="3.87096" rx="0.927372" fill="#3A3D33"/>
<rect x="20.0989" y="4.01978" width="3.87096" height="3.87096" fill="#D5FC7B"/>
<rect y="8.03955" width="3.87096" height="3.87096" fill="#92A95C"/>
<rect x="4.01978" y="8.03955" width="3.87096" height="3.87096" fill="#92A95C"/>
<rect x="8.03955" y="8.03955" width="3.87096" height="3.87096" fill="#92A95C"/>
<rect x="12.0593" y="8.03955" width="3.87096" height="3.87096" fill="#D5FC7B"/>
<rect x="16.0791" y="8.03955" width="3.87096" height="3.87096" fill="#D5FC7B"/>
<rect x="20.0989" y="8.03955" width="3.87096" height="3.87096" fill="#D5FC7B"/>
<rect y="12.0593" width="3.87096" height="3.87096" fill="#92A95C"/>
<rect x="4.01978" y="12.0593" width="3.87096" height="3.87096" rx="0.927372" fill="#3A3D33"/>
<rect x="8.03955" y="12.0593" width="3.87096" height="3.87096" fill="#92A95C"/>
<rect x="12.0593" y="12.0593" width="3.87096" height="3.87096" fill="#D5FC7B"/>
<rect x="16.0791" y="12.0593" width="3.87096" height="3.87096" rx="0.927372" fill="#3A3D33"/>
<rect x="20.0989" y="12.0593" width="3.87096" height="3.87096" fill="#D5FC7B"/>
<rect y="16.0791" width="3.87096" height="3.87096" fill="#92A95C"/>
<rect x="4.01978" y="16.0791" width="3.87096" height="3.87096" fill="#92A95C"/>
<rect x="8.03955" y="16.0791" width="3.87096" height="3.87096" fill="#92A95C"/>
<rect x="12.0593" y="16.0791" width="3.87096" height="3.87096" fill="#D5FC7B"/>
<rect x="16.0791" y="16.0791" width="3.87096" height="3.87096" fill="#D5FC7B"/>
<rect x="20.0989" y="16.0791" width="3.87096" height="3.87096" fill="#D5FC7B"/>
<rect y="20.0989" width="3.87096" height="3.87096" fill="#92A95C"/>
<rect x="4.01978" y="20.0989" width="3.87096" height="3.87096" rx="0.927372" fill="#3A3D33"/>
<rect x="8.03955" y="20.0989" width="3.87096" height="3.87096" fill="#92A95C"/>
<rect x="12.0593" y="20.0989" width="3.87096" height="3.87096" fill="#D5FC7B"/>
<rect x="16.0791" y="20.0989" width="3.87096" height="3.87096" rx="0.927372" fill="#3A3D33"/>
<rect x="20.0989" y="20.0989" width="3.87096" height="3.87096" fill="#D5FC7B"/>
<path d="M35.6161 21V5.32H38.3713V11.7712H45.8529V5.32H48.6081V21H45.8529V14.1008H38.3713V21H35.6161ZM58.1228 21.2464C57.182 21.2464 56.2786 21.0971 55.4124 20.7984C54.5463 20.4848 53.7847 20.0069 53.1276 19.3648C52.4706 18.7227 51.9404 17.9013 51.5372 16.9008C51.149 15.9003 50.9548 14.6907 50.9548 13.272V12.824C50.9548 11.4651 51.149 10.3003 51.5372 9.3296C51.9404 8.35894 52.4706 7.56 53.1276 6.9328C53.7847 6.29067 54.5463 5.82027 55.4124 5.5216C56.2786 5.22294 57.182 5.0736 58.1228 5.0736C59.0636 5.0736 59.9671 5.22294 60.8332 5.5216C61.6994 5.82027 62.461 6.29067 63.118 6.9328C63.7751 7.56 64.2978 8.35894 64.686 9.3296C65.0892 10.3003 65.2908 11.4651 65.2908 12.824V13.272C65.2908 14.6907 65.0892 15.9003 64.686 16.9008C64.2978 17.9013 63.7751 18.7227 63.118 19.3648C62.461 20.0069 61.6994 20.4848 60.8332 20.7984C59.9671 21.0971 59.0636 21.2464 58.1228 21.2464ZM58.1228 18.872C58.6754 18.872 59.213 18.7749 59.7356 18.5808C60.2583 18.3867 60.7138 18.0731 61.102 17.64C61.4903 17.192 61.8039 16.6096 62.0428 15.8928C62.2818 15.176 62.4012 14.3024 62.4012 13.272V12.824C62.4012 11.8384 62.2818 11.0096 62.0428 10.3376C61.8039 9.65067 61.4903 9.09814 61.102 8.68C60.7138 8.24693 60.2583 7.93333 59.7356 7.7392C59.213 7.54507 58.6754 7.448 58.1228 7.448C57.5703 7.448 57.0327 7.54507 56.51 7.7392C55.9874 7.93333 55.5319 8.24693 55.1436 8.68C54.7554 9.09814 54.4418 9.65067 54.2028 10.3376C53.9639 11.0096 53.8444 11.8384 53.8444 12.824V13.272C53.8444 14.3024 53.9639 15.176 54.2028 15.8928C54.4418 16.6096 54.7554 17.192 55.1436 17.64C55.5319 18.0731 55.9874 18.3867 56.51 18.5808C57.0327 18.7749 57.5703 18.872 58.1228 18.872ZM67.6428 21V5.32H73.87C74.8108 5.32 75.6098 5.42454 76.2668 5.6336C76.9388 5.82774 77.4914 6.104 77.9244 6.4624C78.3724 6.8208 78.701 7.26134 78.91 7.784C79.1191 8.30667 79.2236 8.8816 79.2236 9.5088C79.2236 9.912 79.1639 10.2928 79.0444 10.6512C78.925 10.9947 78.7607 11.3083 78.5516 11.592C78.3575 11.8608 78.1111 12.0997 77.8124 12.3088C77.5287 12.5179 77.2226 12.6896 76.894 12.824C77.8348 13.0331 78.5666 13.4512 79.0892 14.0784C79.6268 14.7056 79.8956 15.5344 79.8956 16.5648C79.8956 17.2219 79.7836 17.8267 79.5596 18.3792C79.3506 18.9168 79.022 19.3797 78.574 19.768C78.126 20.1563 77.5436 20.4624 76.8268 20.6864C76.11 20.8955 75.2514 21 74.2508 21H67.6428ZM70.398 18.7376H73.9596C74.5719 18.7376 75.0796 18.6853 75.4828 18.5808C75.886 18.4763 76.2071 18.3269 76.446 18.1328C76.6999 17.9237 76.8791 17.6699 76.9836 17.3712C77.0882 17.0725 77.1404 16.7365 77.1404 16.3632C77.1404 15.9899 77.0882 15.6539 76.9836 15.3552C76.8791 15.0565 76.6999 14.8101 76.446 14.616C76.2071 14.4069 75.8786 14.2501 75.4604 14.1456C75.0423 14.0261 74.5271 13.9664 73.9148 13.9664H70.398V18.7376ZM70.398 11.9056H73.5564C74.109 11.9056 74.5719 11.8533 74.9452 11.7488C75.3186 11.6443 75.6172 11.4949 75.8412 11.3008C76.0802 11.1067 76.2444 10.8752 76.334 10.6064C76.4236 10.3376 76.4684 10.0464 76.4684 9.7328C76.4684 9.40427 76.4236 9.1056 76.334 8.8368C76.2444 8.568 76.0802 8.344 75.8412 8.1648C75.6172 7.97067 75.3186 7.8288 74.9452 7.7392C74.5868 7.63467 74.1239 7.5824 73.5564 7.5824H70.398V11.9056ZM79.9429 21L85.8341 5.32H88.5893L94.5029 21H91.5461L90.2021 17.3936H84.0197L82.6757 21H79.9429ZM84.8709 15.1536H89.3509L87.1109 8.7472L84.8709 15.1536ZM112.151 21.2464C111.285 21.2464 110.471 21.1195 109.709 20.8656C108.962 20.5968 108.298 20.1712 107.716 19.5888C107.148 19.0064 106.685 18.2672 106.327 17.3712C105.968 16.4603 105.752 15.3701 105.677 14.1008H103.213V21H100.458V5.32H103.213V11.7712H105.722C105.797 10.5915 106.013 9.58347 106.372 8.7472C106.745 7.896 107.215 7.2016 107.783 6.664C108.35 6.11147 109.007 5.70827 109.754 5.4544C110.501 5.20054 111.3 5.0736 112.151 5.0736C113.062 5.0736 113.913 5.22294 114.704 5.5216C115.511 5.80534 116.213 6.2608 116.81 6.888C117.407 7.5152 117.878 8.3216 118.221 9.3072C118.58 10.2779 118.759 11.4501 118.759 12.824V13.272C118.759 14.7056 118.58 15.9227 118.221 16.9232C117.878 17.9237 117.407 18.7525 116.81 19.4096C116.213 20.0517 115.511 20.5221 114.704 20.8208C113.913 21.1045 113.062 21.2464 112.151 21.2464ZM112.151 18.872C112.658 18.872 113.136 18.7749 113.584 18.5808C114.032 18.3867 114.421 18.0731 114.749 17.64C115.093 17.192 115.361 16.6096 115.556 15.8928C115.765 15.176 115.869 14.3024 115.869 13.272V12.824C115.869 11.8384 115.765 11.0096 115.556 10.3376C115.361 9.65067 115.093 9.09814 114.749 8.68C114.421 8.24693 114.032 7.93333 113.584 7.7392C113.136 7.54507 112.658 7.448 112.151 7.448C111.643 7.448 111.158 7.54507 110.695 7.7392C110.247 7.93333 109.851 8.24693 109.508 8.68C109.179 9.09814 108.91 9.65067 108.701 10.3376C108.507 11.0096 108.41 11.8384 108.41 12.824V13.272C108.41 14.3024 108.507 15.176 108.701 15.8928C108.91 16.6096 109.179 17.192 109.508 17.64C109.851 18.0731 110.247 18.3867 110.695 18.5808C111.158 18.7749 111.643 18.872 112.151 18.872ZM121.109 21V5.32H131.189V7.6496H123.864V21H121.109Z" fill="white"/>
</svg>
