<svg width="32" height="28" viewBox="0 0 32 28" fill="none" xmlns="http://www.w3.org/2000/svg">
<rect width="4.40999" height="4.40999" rx="1.05651" fill="#DFE6EF"/>
<rect x="4.58594" width="4.40999" height="4.40999" fill="#377BFF"/>
<rect x="9.17285" width="4.40999" height="4.40999" fill="#377BFF"/>
<rect x="13.7588" width="4.40999" height="4.40999" fill="#377BFF"/>
<rect x="18.3457" width="4.40999" height="4.40999" fill="#377BFF"/>
<rect x="22.9316" width="4.40999" height="4.40999" fill="#377BFF"/>
<rect x="27.5186" width="4.40999" height="4.40999" rx="1.05651" fill="#DFE6EF"/>
<rect y="4.58643" width="4.40999" height="4.40999" fill="#377BFF"/>
<rect x="4.58594" y="4.58643" width="4.40999" height="4.40999" fill="#377BFF"/>
<rect x="9.17285" y="4.58643" width="4.40999" height="4.40999" fill="#377BFF"/>
<rect x="13.7588" y="4.58643" width="4.40999" height="4.40999" fill="#377BFF"/>
<rect x="18.3457" y="4.58643" width="4.40999" height="4.40999" fill="#377BFF"/>
<rect x="22.9316" y="4.58643" width="4.40999" height="4.40999" fill="#377BFF"/>
<rect x="27.5186" y="4.58643" width="4.40999" height="4.40999" fill="#377BFF"/>
<rect y="9.17285" width="4.40999" height="4.40999" rx="1.05651" fill="#DFE6EF"/>
<rect x="4.58594" y="9.17285" width="4.40999" height="4.40999" fill="#377BFF"/>
<rect x="9.17285" y="9.17285" width="4.40999" height="4.40999" rx="1.05651" fill="#DFE6EF"/>
<rect x="13.7588" y="9.17285" width="4.40999" height="4.40999" fill="#377BFF"/>
<rect x="18.3457" y="9.17285" width="4.40999" height="4.40999" rx="1.05651" fill="#DFE6EF"/>
<rect x="22.9316" y="9.17285" width="4.40999" height="4.40999" fill="#377BFF"/>
<rect x="27.5186" y="9.17285" width="4.40999" height="4.40999" rx="1.05651" fill="#DFE6EF"/>
<rect y="13.7593" width="4.40999" height="4.40999" rx="1.05651" fill="#DFE6EF"/>
<rect x="4.58594" y="13.7593" width="4.40999" height="4.40999" fill="#377BFF"/>
<rect x="9.17285" y="13.7593" width="4.40999" height="4.40999" rx="1.05651" fill="#DFE6EF"/>
<rect x="13.7588" y="13.7593" width="4.40999" height="4.40999" fill="#377BFF"/>
<rect x="18.3457" y="13.7593" width="4.40999" height="4.40999" rx="1.05651" fill="#DFE6EF"/>
<rect x="22.9316" y="13.7593" width="4.40999" height="4.40999" fill="#377BFF"/>
<rect x="27.5186" y="13.7593" width="4.40999" height="4.40999" rx="1.05651" fill="#DFE6EF"/>
<rect y="18.3457" width="4.40999" height="4.40999" rx="1.05651" fill="#DFE6EF"/>
<rect x="4.58594" y="18.3457" width="4.40999" height="4.40999" fill="#377BFF"/>
<rect x="9.17285" y="18.3457" width="4.40999" height="4.40999" rx="1.05651" fill="#DFE6EF"/>
<rect x="13.7588" y="18.3457" width="4.40999" height="4.40999" fill="#377BFF"/>
<rect x="18.3457" y="18.3457" width="4.40999" height="4.40999" rx="1.05651" fill="#DFE6EF"/>
<rect x="22.9316" y="18.3457" width="4.40999" height="4.40999" fill="#377BFF"/>
<rect x="27.5186" y="18.3457" width="4.40999" height="4.40999" rx="1.05651" fill="#DFE6EF"/>
<rect y="22.9321" width="4.40999" height="4.40999" fill="#377BFF"/>
<rect x="4.58594" y="22.9321" width="4.40999" height="4.40999" fill="#377BFF"/>
<rect x="9.17285" y="22.9321" width="4.40999" height="4.40999" fill="#377BFF"/>
<rect x="13.7588" y="22.9321" width="4.40999" height="4.40999" fill="#377BFF"/>
<rect x="18.3457" y="22.9321" width="4.40999" height="4.40999" fill="#377BFF"/>
<rect x="22.9316" y="22.9321" width="4.40999" height="4.40999" fill="#377BFF"/>
<rect x="27.5186" y="22.9321" width="4.40999" height="4.40999" fill="#377BFF"/>
</svg>
